<svg xmlns="http://www.w3.org/2000/svg" width="24" height="24" viewBox="0 0 24 24"><g transform="translate(-121.124 -613.271)"><path d="M-186,12a12,12,0,0,1-12,12,12,12,0,0,1-12-12A12,12,0,0,1-198,0,12,12,0,0,1-186,12Z" transform="translate(331.124 613.271)" fill="#bfae9c"/><path d="M-181.041,17.595a2.757,2.757,0,0,1-1.453,2.722,14.109,14.109,0,0,1-2.665.575q-1.453.242-1.453,1.119v2.45c0,.1.03.414.091.938l.091.968a8.374,8.374,0,0,1-.212,1.482q-.575.121-1.332.273a5.9,5.9,0,0,1-.242-1.241,2.094,2.094,0,0,1,.075-.454,2.1,2.1,0,0,0,.077-.454,5.317,5.317,0,0,0-.376-1.178h-.47a.592.592,0,0,0-.063.393,2.886,2.886,0,0,1,.091.877q-.515.363-1.424.968c-.141-.04-.191-.06-.152-.06V24.824c-.04-.1-.141-.14-.3-.121h-.363l-.363,2.843a8.664,8.664,0,0,1-1.03,0q-.213-1-.757-2.964h-.242q-.334,1.059-.364,1.15a2.707,2.707,0,0,0,.076.469,2.787,2.787,0,0,1,.075.469,4.031,4.031,0,0,1-.06.454l-.091.726a.207.207,0,0,1-.151.06,1.364,1.364,0,0,1-1.211-.453,2,2,0,0,1-.242-1.271l.242-3.629a.69.69,0,0,1,.06-.242.716.716,0,0,0,.06-.212,2.432,2.432,0,0,0-.515-.968c-.06-.02-.374-.091-.939-.212q-.516-.121-2.029-.424-2.091-.392-2.09-3.357a9.073,9.073,0,0,1,3.634-7.35q.15.817.514,2.178.273.062,1.181.272.183.061,1.848.666a18.9,18.9,0,0,1-2.211-1.664,3.132,3.132,0,0,1-.515-2.026q0-.333,1.151-.787a6.624,6.624,0,0,1,1.544-.484,21.272,21.272,0,0,1,2.514-.212,9.261,9.261,0,0,1,6.116,1.937,9.4,9.4,0,0,1-2.6,1.875,5.352,5.352,0,0,0,2.12-.575q1.392-.6,1.181-.6.242,0,.969.968a13.728,13.728,0,0,1,.878,1.3,11.366,11.366,0,0,1,1.3,3.72q0,.7.03,1Zm-11.6.545a3.51,3.51,0,0,0-1.136-2.466,3.379,3.379,0,0,0-2.438-1.164,2.665,2.665,0,0,0-2.029.974,3.154,3.154,0,0,0-.878,2.162,1.282,1.282,0,0,0,1,1.339,7.471,7.471,0,0,0,1.786.213h1.666Q-192.641,19.228-192.64,18.139Zm3.3,3.751v-.938q-.212-.393-.424-.817a15.478,15.478,0,0,0-.666-1.694l-.333,3.539q0,.424-.182.424a.247.247,0,0,1-.181-.06q-.212-3.206-.212-2.783V18.5a.177.177,0,0,0-.151-.091,4.775,4.775,0,0,0-1.03,3.418,3.143,3.143,0,0,0,.242,1.6,2.7,2.7,0,0,0,.545-.212,2.209,2.209,0,0,1,.7-.061,3.567,3.567,0,0,1,1.392.363Q-189.339,23.523-189.339,21.89Zm6.844-4.215A3.08,3.08,0,0,0-183.4,15.5a2.806,2.806,0,0,0-2.089-.959A3.258,3.258,0,0,0-187.87,15.7a3.52,3.52,0,0,0-1.105,2.435.923.923,0,0,0,1.03,1.059h3.482Q-182.5,19.168-182.495,17.676Z" transform="translate(323.992 607.343)" fill="#080808"/></g></svg>