<svg xmlns="http://www.w3.org/2000/svg" width="24" height="24" viewBox="0 0 24 24"><g transform="translate(-88 -394)"><circle cx="12" cy="12" r="12" transform="translate(88 394)" fill="#c0dbe1"/><path d="M-280.461,27.561a5.541,5.541,0,0,1-4.114,1.7,5.435,5.435,0,0,1-4.352-1.878,6.793,6.793,0,0,1-1.52-4.56q0-2.98,2.593-6.8a25.7,25.7,0,0,1,4.978-5.484,14.716,14.716,0,0,0-.417,2.712,6.466,6.466,0,0,0,1.162,3.607q1.431,2.086,2.176,3.1a6.223,6.223,0,0,1,1.162,3.428A5.725,5.725,0,0,1-280.461,27.561Zm-.03-6.364a2.7,2.7,0,0,0-1.043-1.326,1.161,1.161,0,0,1,.09.507,6.61,6.61,0,0,1-.358,1.788l-.387,1.192a.922.922,0,0,0,1.043,1.044q1.1,0,1.1-1.461A4.385,4.385,0,0,0-280.491,21.2Z" transform="translate(384.579 386.114)" fill="#080808"/></g></svg>