<svg xmlns="http://www.w3.org/2000/svg" width="24" height="24" viewBox="0 0 24 24"><g transform="translate(-186.248 -613.271)"><path d="M24,12A12,12,0,1,1,12,0,12,12,0,0,1,24,12Z" transform="translate(186.248 613.271)" fill="#97c37a"/><path d="M27.48,18.383a1.518,1.518,0,0,1-.466,1.083,1.448,1.448,0,0,1-1.068.481,1.487,1.487,0,0,1-1.414-.9l-1.414-.06a7.976,7.976,0,0,0-1.776.391,4.6,4.6,0,0,0-1.625.632,3.649,3.649,0,0,0-.542,1.684,10.73,10.73,0,0,0-.18,1.594,2.152,2.152,0,0,0,.256,1.188,1.972,1.972,0,0,0,1.053.632q.8.255.978.285.12,0,.391-.03h.361a2.991,2.991,0,0,1,.813.12q.6.181.512.482a4.763,4.763,0,0,0-1.474.181l.842.421q0,.361-1.023.361a3.153,3.153,0,0,1-.738-.12,3.148,3.148,0,0,0-.616-.12h-.391a6.942,6.942,0,0,1-.181.9,2.249,2.249,0,0,1-1.2-.6,2.452,2.452,0,0,0-.872-.571q-.181,0-.512.571a2.047,2.047,0,0,0-.331.782,1.652,1.652,0,0,1-.662-.782q-.12-.391-.27-.782-.3.03-1.113,1.264h-.151c-.04-.061-.192-.482-.451-1.264a5.709,5.709,0,0,0-1.745-.3,6.212,6.212,0,0,0-1.2.18l-.842-.06a6.969,6.969,0,0,1,1.053-.692,3.523,3.523,0,0,1,1.565-.6,1.347,1.347,0,0,1,.241.03,1.238,1.238,0,0,0,.241.03,1.836,1.836,0,0,0,.676-.226q.466-.225.541-.405a3.274,3.274,0,0,0,.076-.933,3.333,3.333,0,0,0-.9-2.556,5.033,5.033,0,0,0-2.588-1.083Q10.84,21.3,8.613,21.3a1.968,1.968,0,0,1-1.444-.872,2.611,2.611,0,0,1-.722-1.594A2.226,2.226,0,0,1,7.379,17a2.312,2.312,0,0,1-.752-1.593,2.032,2.032,0,0,1,.466-1.324,1.794,1.794,0,0,1,1.218-.662A1.259,1.259,0,0,1,8.944,12.1a1.637,1.637,0,0,1-.331-1.172A2.263,2.263,0,0,1,10.93,8.608a2.306,2.306,0,0,1,1.776.752,3.656,3.656,0,0,1,3.761-2.978,3.552,3.552,0,0,1,2.648,1.2,4.118,4.118,0,0,1,.421.481q-.361,0,.361-.135A6.423,6.423,0,0,1,20.951,7.8a2.9,2.9,0,0,1,2.076.872,4.175,4.175,0,0,1,1.084,1.985,4.351,4.351,0,0,1,.662.18,1.174,1.174,0,0,1,.662,1.143,1.539,1.539,0,0,1-.241.571,3.326,3.326,0,0,1,1.926,3.008,4.1,4.1,0,0,1-.421,1.5A1.441,1.441,0,0,1,27.48,18.383Zm-12.4,1.323v-.391a1.645,1.645,0,0,0-.677-1.263,2.123,2.123,0,0,0-1.369-.571,3.241,3.241,0,0,0-1.565.39Q13.066,17.782,15.082,19.707Zm-.541-3.729a7.581,7.581,0,0,1-.783-1.053q-1.264.331-1.264.751a3.656,3.656,0,0,1,1.053.136A4.9,4.9,0,0,0,14.541,15.977Zm1.836-.932V13.722a8.56,8.56,0,0,0-.873-.12v.451Zm3.912-.842q-.361-.15-1.354-.6v2.586A2.19,2.19,0,0,0,20.289,14.2Zm1.654,3.549-.661-.812q-.6.421-1.219.857a5.536,5.536,0,0,0-1.068.977A10.267,10.267,0,0,1,21.943,17.752Z" transform="translate(181.309 608.381)" fill="#080808"/></g></svg>