<svg xmlns="http://www.w3.org/2000/svg" viewBox="0 0 351.07 68.21"><defs><style>.cls-1{fill:#27d1c5;}</style></defs><g id="Layer_2" data-name="Layer 2"><g id="Layer_1-2" data-name="Layer 1"><path class="cls-1" d="M95.35,14.92V41.43a1.34,1.34,0,0,0,1.34,1.34h14.78a1.34,1.34,0,0,1,1.34,1.34v3.94a1.35,1.35,0,0,1-1.34,1.35H88.82a1.35,1.35,0,0,1-1.34-1.35V14.92a1.34,1.34,0,0,1,1.34-1.34H94A1.34,1.34,0,0,1,95.35,14.92Z"/><path class="cls-1" d="M117.7,31.44a1.34,1.34,0,0,1-1.31-1.64,7.36,7.36,0,0,1,1-2.53,8.48,8.48,0,0,1,2.81-2.65,12.16,12.16,0,0,1,3.84-1.43,21.38,21.38,0,0,1,4.29-.43,28.17,28.17,0,0,1,4,.28A12.09,12.09,0,0,1,136,24.11a7.15,7.15,0,0,1,2.71,2.24,6.23,6.23,0,0,1,1.05,3.78v13.5A25.9,25.9,0,0,0,140,47c0,.29.08.56.13.81a1.34,1.34,0,0,1-1.32,1.6h-4.31a1.33,1.33,0,0,1-1.31-1,1.62,1.62,0,0,1,0-.19,11,11,0,0,1-.18-1.28,9.25,9.25,0,0,1-4,2.46,16.4,16.4,0,0,1-4.72.7,12.81,12.81,0,0,1-3.46-.45,8.08,8.08,0,0,1-2.81-1.41A6.51,6.51,0,0,1,116,45.78a8.15,8.15,0,0,1-.67-3.46,7.51,7.51,0,0,1,.77-3.63,6.5,6.5,0,0,1,2-2.29A9.14,9.14,0,0,1,121,35.12a29,29,0,0,1,3.18-.67c1.07-.17,2.13-.3,3.16-.4a18.86,18.86,0,0,0,2.76-.46,4.84,4.84,0,0,0,1.91-.87,1.94,1.94,0,0,0,.65-1.68,3.85,3.85,0,0,0-.37-1.84,2.83,2.83,0,0,0-1-1.05,3.9,3.9,0,0,0-1.45-.5,12.41,12.41,0,0,0-1.78-.13,5.4,5.4,0,0,0-3.31.91,3.48,3.48,0,0,0-1.25,2,1.32,1.32,0,0,1-1.31,1Zm14.92,5.26a3.16,3.16,0,0,1-1.13.63,11.33,11.33,0,0,1-1.45.38c-.52.1-1.06.18-1.63.25s-1.14.15-1.71.25a12.61,12.61,0,0,0-1.58.4,4.5,4.5,0,0,0-1.35.68,3,3,0,0,0-.93,1.08,3.48,3.48,0,0,0-.35,1.65,3.42,3.42,0,0,0,.35,1.61,2.67,2.67,0,0,0,1,1,3.83,3.83,0,0,0,1.41.53,8.88,8.88,0,0,0,1.65.15,6.27,6.27,0,0,0,3.26-.7A4.75,4.75,0,0,0,131.82,43a5.43,5.43,0,0,0,.68-2,14.32,14.32,0,0,0,.12-1.61Z"/><path class="cls-1" d="M150.69,23.46A1.34,1.34,0,0,1,152,24.8v2.27h.15a8.2,8.2,0,0,1,3.52-3.28,10,10,0,0,1,4.41-1,12,12,0,0,1,4.69.78,6.93,6.93,0,0,1,2.88,2.15,8.19,8.19,0,0,1,1.48,3.36,20.62,20.62,0,0,1,.43,4.39V48.05a1.35,1.35,0,0,1-1.34,1.35h-4.44a1.35,1.35,0,0,1-1.34-1.35V34.75a9.06,9.06,0,0,0-1-4.79,3.87,3.87,0,0,0-3.56-1.58,4.91,4.91,0,0,0-4.21,1.73q-1.31,1.73-1.31,5.69V48.05A1.35,1.35,0,0,1,151,49.4H146.6a1.35,1.35,0,0,1-1.34-1.35V24.8a1.34,1.34,0,0,1,1.34-1.34Z"/><path class="cls-1" d="M193.42,46.08a7.39,7.39,0,0,1-3.29,3,10.88,10.88,0,0,1-4.59.93,11.16,11.16,0,0,1-5.12-1.13,10.18,10.18,0,0,1-3.63-3.06,13.9,13.9,0,0,1-2.16-4.44,18.81,18.81,0,0,1-.73-5.22,17.65,17.65,0,0,1,.73-5,13.12,13.12,0,0,1,2.16-4.29,10.82,10.82,0,0,1,3.58-3,10.71,10.71,0,0,1,5-1.13,10.24,10.24,0,0,1,4.39,1,7.67,7.67,0,0,1,3.29,2.88h.1V14.92a1.34,1.34,0,0,1,1.34-1.34H199a1.34,1.34,0,0,1,1.34,1.34V48.05A1.35,1.35,0,0,1,199,49.4h-4.09a1.35,1.35,0,0,1-1.34-1.35v-2Zm-.3-12.81a7.79,7.79,0,0,0-1-2.61,6,6,0,0,0-1.88-1.83,5.5,5.5,0,0,0-2.91-.7,5.76,5.76,0,0,0-3,.7,5.52,5.52,0,0,0-1.93,1.85,8.17,8.17,0,0,0-1.06,2.64A14.05,14.05,0,0,0,181,36.4a12.82,12.82,0,0,0,.35,3,8.11,8.11,0,0,0,1.13,2.69,6.2,6.2,0,0,0,2,1.9,5.26,5.26,0,0,0,2.84.73,5.63,5.63,0,0,0,2.93-.7,5.37,5.37,0,0,0,1.88-1.88,8.63,8.63,0,0,0,1-2.69,15.85,15.85,0,0,0,.3-3.11A15.4,15.4,0,0,0,193.12,33.27Z"/><path class="cls-1" d="M212.43,40.57a5.7,5.7,0,0,0,1.73,2,7.43,7.43,0,0,0,2.53,1.15,12,12,0,0,0,3,.38A15.34,15.34,0,0,0,222,44a7.88,7.88,0,0,0,2.26-.67A5.07,5.07,0,0,0,226,41.9a3.47,3.47,0,0,0,.7-2.24,3.15,3.15,0,0,0-.92-2.35,7.2,7.2,0,0,0-2.44-1.51,24.22,24.22,0,0,0-3.41-1c-1.27-.3-2.56-.64-3.86-1a34.12,34.12,0,0,1-3.91-1.22,13.55,13.55,0,0,1-3.41-1.89,8.41,8.41,0,0,1-3.37-7.07,9.45,9.45,0,0,1,1.18-4.79,10.75,10.75,0,0,1,3.09-3.38,13.23,13.23,0,0,1,4.31-2,18.16,18.16,0,0,1,4.82-.65,23.19,23.19,0,0,1,5.39.62,13.47,13.47,0,0,1,4.59,2A10.27,10.27,0,0,1,231.92,19,10.38,10.38,0,0,1,233,22.82a1.33,1.33,0,0,1-1.34,1.44h-5a1.32,1.32,0,0,1-1.31-1.05,5.47,5.47,0,0,0-.55-1.6A4.31,4.31,0,0,0,223.26,20a6.49,6.49,0,0,0-2.18-.85,13.2,13.2,0,0,0-2.68-.25,8.86,8.86,0,0,0-1.91.2,5.08,5.08,0,0,0-1.73.7A4.24,4.24,0,0,0,213.48,21a3.41,3.41,0,0,0-.5,1.91,3.23,3.23,0,0,0,.4,1.71,3.62,3.62,0,0,0,1.58,1.2,20.29,20.29,0,0,0,3.26,1.1q2.09.55,5.44,1.41,1,.2,2.79.72A14,14,0,0,1,230,30.73a10.67,10.67,0,0,1,3,3.09,8.8,8.8,0,0,1,1.28,4.94,10.91,10.91,0,0,1-1,4.57A9.91,9.91,0,0,1,230.51,47a13.66,13.66,0,0,1-4.66,2.39,22.4,22.4,0,0,1-6.45.85,22.81,22.81,0,0,1-5.74-.73,14.45,14.45,0,0,1-4.92-2.28,11.41,11.41,0,0,1-3.39-4,11.15,11.15,0,0,1-1.16-4.3,1.33,1.33,0,0,1,1.34-1.42h5a1.36,1.36,0,0,1,1.36,1.14A5.68,5.68,0,0,0,212.43,40.57Z"/><path class="cls-1" d="M250.6,28.13a5.06,5.06,0,0,0-2.86.77,6.14,6.14,0,0,0-1.88,2,8.51,8.51,0,0,0-1,2.71,14.72,14.72,0,0,0-.3,2.93,14.11,14.11,0,0,0,.3,2.86,9,9,0,0,0,1,2.64A5.63,5.63,0,0,0,247.64,44a5.06,5.06,0,0,0,2.81.75,5.24,5.24,0,0,0,3.94-1.43,6.32,6.32,0,0,0,1.52-2.81,1.35,1.35,0,0,1,1.3-1h4.17a1.33,1.33,0,0,1,1.31,1.62A11.14,11.14,0,0,1,259,47.34a13,13,0,0,1-8.48,2.71,14.22,14.22,0,0,1-5.34-1A11.68,11.68,0,0,1,241,46.34a12.6,12.6,0,0,1-2.66-4.19,14.46,14.46,0,0,1-1-5.35,17.42,17.42,0,0,1,.87-5.59,12.59,12.59,0,0,1,2.59-4.46A11.65,11.65,0,0,1,245,23.81a14.19,14.19,0,0,1,5.62-1,16.3,16.3,0,0,1,4.44.6,11.8,11.8,0,0,1,3.81,1.83,9.78,9.78,0,0,1,2.73,3.06,8.83,8.83,0,0,1,1,2.72,1.34,1.34,0,0,1-1.31,1.62h-4.38a1.38,1.38,0,0,1-1.3-1Q254.62,28.13,250.6,28.13Z"/><path class="cls-1" d="M268.23,31.44a1.35,1.35,0,0,1-1.31-1.64,7.18,7.18,0,0,1,1-2.53,8.44,8.44,0,0,1,2.8-2.65,12.16,12.16,0,0,1,3.84-1.43,21.38,21.38,0,0,1,4.29-.43,28,28,0,0,1,4,.28,12.23,12.23,0,0,1,3.67,1.07,7.2,7.2,0,0,1,2.7,2.24,6.16,6.16,0,0,1,1.06,3.78v13.5a25.94,25.94,0,0,0,.2,3.36c0,.29.08.56.13.81a1.34,1.34,0,0,1-1.31,1.6H285a1.34,1.34,0,0,1-1.31-1c0-.07,0-.13,0-.19a10.93,10.93,0,0,1-.17-1.28,9.34,9.34,0,0,1-4,2.46,16.38,16.38,0,0,1-4.71.7,12.75,12.75,0,0,1-3.46-.45,8,8,0,0,1-2.81-1.41,6.41,6.41,0,0,1-1.88-2.41,8,8,0,0,1-.68-3.46,7.51,7.51,0,0,1,.78-3.63,6.38,6.38,0,0,1,2-2.29,9.14,9.14,0,0,1,2.81-1.28,29.66,29.66,0,0,1,3.19-.67c1.07-.17,2.12-.3,3.16-.4a19.33,19.33,0,0,0,2.76-.46,4.86,4.86,0,0,0,1.9-.87,1.92,1.92,0,0,0,.65-1.68,3.85,3.85,0,0,0-.37-1.84,2.81,2.81,0,0,0-1-1.05,4,4,0,0,0-1.46-.5,12.41,12.41,0,0,0-1.78-.13,5.4,5.4,0,0,0-3.31.91,3.47,3.47,0,0,0-1.24,2,1.34,1.34,0,0,1-1.31,1Zm14.92,5.26a3.12,3.12,0,0,1-1.12.63,12,12,0,0,1-1.46.38c-.52.1-1.06.18-1.63.25s-1.14.15-1.7.25a11.79,11.79,0,0,0-1.58.4,4.56,4.56,0,0,0-1.36.68,3.26,3.26,0,0,0-.93,1.08A3.48,3.48,0,0,0,273,42a3.42,3.42,0,0,0,.35,1.61,2.69,2.69,0,0,0,1,1,3.85,3.85,0,0,0,1.4.53,9.07,9.07,0,0,0,1.66.15,6.29,6.29,0,0,0,3.26-.7,4.72,4.72,0,0,0,1.7-1.68,5.25,5.25,0,0,0,.68-2,14.32,14.32,0,0,0,.12-1.61Z"/><path class="cls-1" d="M301.23,23.46a1.34,1.34,0,0,1,1.34,1.34v2h.1A7.88,7.88,0,0,1,306,23.71a10.21,10.21,0,0,1,4.41-.95,11.23,11.23,0,0,1,5.27,1.15A10.9,10.9,0,0,1,319.32,27a12.94,12.94,0,0,1,2.16,4.44,19.69,19.69,0,0,1,.7,5.29,17.75,17.75,0,0,1-.7,5A12.73,12.73,0,0,1,319.35,46a10.4,10.4,0,0,1-8.56,4.07,10.17,10.17,0,0,1-4.44-1A8.35,8.35,0,0,1,303,46.18h-.1v11a1.34,1.34,0,0,1-1.34,1.34h-4.44a1.34,1.34,0,0,1-1.35-1.34V24.8a1.34,1.34,0,0,1,1.35-1.34ZM311.82,44a5.77,5.77,0,0,0,1.91-1.83,7.67,7.67,0,0,0,1-2.64,15.56,15.56,0,0,0,.3-3.06,14.34,14.34,0,0,0-.33-3.06,8.29,8.29,0,0,0-1.08-2.68,6,6,0,0,0-1.93-1.91,5.45,5.45,0,0,0-2.88-.72,5.57,5.57,0,0,0-2.94.72,6,6,0,0,0-1.9,1.88,7.73,7.73,0,0,0-1,2.66,15.92,15.92,0,0,0-.3,3.11,14.85,14.85,0,0,0,.32,3.06,7.9,7.9,0,0,0,1.06,2.64A5.56,5.56,0,0,0,306,44a6.44,6.44,0,0,0,5.84,0Z"/><path class="cls-1" d="M334.07,43.17a7.28,7.28,0,0,0,8.32.48,5.43,5.43,0,0,0,1.61-1.6,1.31,1.31,0,0,1,1.12-.68h3.5a1.35,1.35,0,0,1,1.23,1.89A10.81,10.81,0,0,1,346,48a13.61,13.61,0,0,1-7.53,2,14.87,14.87,0,0,1-5.52-1,11.49,11.49,0,0,1-4.16-2.78A12.6,12.6,0,0,1,326.12,42a15.75,15.75,0,0,1-.93-5.52,15.19,15.19,0,0,1,.95-5.41,12.57,12.57,0,0,1,6.9-7.23,13.46,13.46,0,0,1,5.39-1A12.37,12.37,0,0,1,344.2,24a11.52,11.52,0,0,1,4,3.43,14.24,14.24,0,0,1,2.28,4.92,18.37,18.37,0,0,1,.55,4.41,1.35,1.35,0,0,1-1.35,1.36H333.8a1.34,1.34,0,0,0-1.33,1.57A6.06,6.06,0,0,0,334.07,43.17Zm8.05-13.64a5,5,0,0,0-3.89-1.4,6.23,6.23,0,0,0-2.83.57,5.37,5.37,0,0,0-1.81,1.43,5.18,5.18,0,0,0-.95,1.81v0a1.34,1.34,0,0,0,1.3,1.68h8.24a1.34,1.34,0,0,0,1.28-1.75A6.85,6.85,0,0,0,342.12,29.53Z"/><path class="cls-1" d="M71.26,48.9,49.6,27.23H63a1.33,1.33,0,0,0-.37-1L36.81.39A1.3,1.3,0,0,0,35,.39L9.15,26.19a1.31,1.31,0,0,0-.38,1h13.4L.5,48.9A1.69,1.69,0,0,0,0,50.28h17.4L35,67.82a1.3,1.3,0,0,0,1.86,0L54.36,50.28h17.4A1.73,1.73,0,0,0,71.26,48.9ZM52.9,46.77l-17,17V4.42l19.3,19.3H41.12l23,23.05Z"/></g></g></svg>