<svg xmlns="http://www.w3.org/2000/svg" width="24" height="24" viewBox="0 0 24 24"><g transform="translate(-154 -613)"><circle cx="12" cy="12" r="12" transform="translate(154 613)" fill="#fc8e5a"/><path d="M-71.215,20.66q-1.3,3.1-5.165,3.1a7.373,7.373,0,0,0-1.535.177q-1.24.266-1.239.739a.517.517,0,0,0,.206.339.576.576,0,0,0,.354.192q-.738,0,1,.044t2.185.045Q-77.974,26.8-84,26.681A4.364,4.364,0,0,1-87.39,24.94a5.445,5.445,0,0,1-1.387-3.631,5.026,5.026,0,0,1,1.432-3.616,4.733,4.733,0,0,1,3.556-1.49,5.193,5.193,0,0,1,1.254.207,5.2,5.2,0,0,0,1.048.207,5.928,5.928,0,0,0,2.716-.9,12.543,12.543,0,0,0,1.535-.9q-.3,3.1-2.067,4.162-1.269.738-1.269,1.446a.8.8,0,0,0,.531.709,2.016,2.016,0,0,0,.915.207,2.007,2.007,0,0,0,1.506-.944,2.421,2.421,0,0,0,.649-1.712,8.222,8.222,0,0,1,.118-2.125,2.244,2.244,0,0,1,.428-.87,1.753,1.753,0,0,1,.664-.635,3.487,3.487,0,0,1-.192.885,3.477,3.477,0,0,0-.192.915,1.355,1.355,0,0,0,.354,1q.531-.206.945-1.328a5.393,5.393,0,0,0,.413-1.653,3.729,3.729,0,0,1-2.376-1.122,3.128,3.128,0,0,1-1.136-2.3,1.467,1.467,0,0,1,.059-.413q.177.266.531.827.5.738.768.738.353,0,.354-.738a3.063,3.063,0,0,0-.5-1.712,1.661,1.661,0,0,0-1.446-.915,3.014,3.014,0,0,0-1.239.443,3.248,3.248,0,0,1-1.505.443,13.324,13.324,0,0,1-1.831-.532q2.863-.472,2.863-.856,0-1-3.926-1.358-.384-.029-1.417-.118a5,5,0,0,1,1.683-.325q1.328-.147,1.859-.148,7.025,0,8.914,6.819a1.106,1.106,0,0,0,.325-.9,5.933,5.933,0,0,0-.472-2.035q-.178-.478-.561-1.436a9.655,9.655,0,0,1,2.421,5.843,5.219,5.219,0,0,1-.679,2.639A10.676,10.676,0,0,1-73.4,19.765a14.444,14.444,0,0,0-1.653,1.927,16.088,16.088,0,0,0,2.126-.679,6.164,6.164,0,0,0,2.036-1.506A3.336,3.336,0,0,1-71.215,20.66ZM-84.084,9.06a.666.666,0,0,1-.59.678l-.768.118a4.559,4.559,0,0,0-1.21,1.623q-.089-.442-.266-1.239a2.411,2.411,0,0,0-.885.472q-.266.207-.857.62a4.314,4.314,0,0,1,1.181-2.155,2.9,2.9,0,0,1,2.066-1.21Q-84.084,7.968-84.084,9.06Zm5.136,2.715a.984.984,0,0,1-.546.841,2.034,2.034,0,0,1-1.077.34,1.57,1.57,0,0,1-1.269-.8,3.428,3.428,0,0,0-1.388-1.27.486.486,0,0,1,.355-.147,2.1,2.1,0,0,1,.9.413,2.326,2.326,0,0,0,.812.413q.147,0,.487-.413a.971.971,0,0,1,.753-.413Q-78.948,10.742-78.948,11.775Z" transform="translate(247.799 607.989)" fill="#080808"/></g></svg>