<svg xmlns="http://www.w3.org/2000/svg" width="24" height="24" viewBox="0 0 24 24"><g transform="translate(-44 -263)"><g transform="translate(0 2)"><circle cx="12" cy="12" r="12" transform="translate(44 261)" fill="#f9fbd2"/><path d="M-394.535,14.975a9.549,9.549,0,0,0-3.063-1.3q-.489,0-.766.726a1.071,1.071,0,0,1-1.1.726,8.01,8.01,0,0,1-1.378-.236,3.129,3.129,0,0,0-.582,1.1c0,.217.167.473.5.771a1.417,1.417,0,0,0,.846.444,2.726,2.726,0,0,0,.595-.089,2.8,2.8,0,0,1,.5-.089q.376,0,.376,1.333a19.255,19.255,0,0,1-.613,3.911q-.8-3.023-1.684-3.023a1.618,1.618,0,0,0-.505.178,1.561,1.561,0,0,1-.567.177q-.888,0-1.593-1.57-1.409.207-1.409,1.393a1.075,1.075,0,0,0,.567.948c.377.237.567.406.567.5q0,.8-2.42,2.459-1.286.889-1.776,1.244a7.872,7.872,0,0,0,.858-1.392,3.757,3.757,0,0,0,.49-1.511q0-.3-.7-.83a1.461,1.461,0,0,1-.7-1.126,2.942,2.942,0,0,1,.367-1.244,1.232,1.232,0,0,0-.949-.445q-1.225,0-1.225.77v.8q.03.978-1.532.978a25.016,25.016,0,0,1-4.013-.533q3.186-.771,3.186-1.778a3.655,3.655,0,0,1-.122-.711q-.123-.918,1.347-1.659-.276-1.362-1.47-1.363-.184,0-.674.622t-.918.623q-.735,0-1.9-1.541-.552-.769-1.685-2.281l1.409.712a3.854,3.854,0,0,0,1.47.414q.429,0,.842-.726a1.231,1.231,0,0,1,1.087-.726q.093,0,1.225.356a2.748,2.748,0,0,0,.582-1.274,1.278,1.278,0,0,0-.444-.815,1.22,1.22,0,0,0-.812-.459,1.986,1.986,0,0,0-.475.089,2,2,0,0,1-.474.089q-.552,0-.552-1.333,0-.356.705-4.059a5.128,5.128,0,0,0,.4,1.659q.521,1.482,1.226,1.482a1.509,1.509,0,0,0,.49-.178,1.452,1.452,0,0,1,.582-.177,1.345,1.345,0,0,1,1.164.77l.459.8a1.426,1.426,0,0,0,1.072-.444,1.482,1.482,0,0,0,.429-1.067,1.091,1.091,0,0,0-.567-.993q-.568-.341-.567-.518,0-.622,2.022-2.1a15.219,15.219,0,0,1,2.114-1.392,5.209,5.209,0,0,0-1.317,2.518,1.287,1.287,0,0,0,.521.889,2.957,2.957,0,0,1,.735.8,2.691,2.691,0,0,1-.061,1.867,2.619,2.619,0,0,0,1.256.563.786.786,0,0,0,.888-.889q0-.089-.076-.563a1.713,1.713,0,0,1-.046-.534q.122-.415,1.685-.415a30.866,30.866,0,0,1,4.074.534l-2.021.533q-1.225.355-1.226.8a2.871,2.871,0,0,0,.153.711,2.9,2.9,0,0,1,.154.741.973.973,0,0,1-.552.77l-1.042.712a4.641,4.641,0,0,0,.49.77,1.035,1.035,0,0,0,.827.356q.368,0,.674-.622a1.023,1.023,0,0,1,.98-.623q.826,0,1.869,1.482Q-395.761,13.287-394.535,14.975Zm-6.8-1.718a4.429,4.429,0,0,0-1.44-3.289,4.727,4.727,0,0,0-3.4-1.392A4.788,4.788,0,0,0-409.6,9.954a4.514,4.514,0,0,0-1.47,3.3,4.216,4.216,0,0,0,1.455,3.274,4.912,4.912,0,0,0,3.446,1.378A4.86,4.86,0,0,0-402.7,16.59,4.3,4.3,0,0,0-401.334,13.257Zm-.46,0a3.935,3.935,0,0,1-1.256,2.992,4.376,4.376,0,0,1-3.124,1.186,4.341,4.341,0,0,1-3.093-1.215,3.92,3.92,0,0,1-1.286-2.962,3.913,3.913,0,0,1,1.3-2.948,4.337,4.337,0,0,1,3.079-1.23,4.305,4.305,0,0,1,3.078,1.245A3.929,3.929,0,0,1-401.794,13.257Z" transform="translate(462.233 260.387)" fill="#080808"/></g></g></svg>